<svg width="139" height="190" viewBox="0 0 139 190" fill="none" xmlns="http://www.w3.org/2000/svg">
<g clip-path="url(#clip0_10_932)">
<path d="M34.021 172.952L4.80297 152.251C3.77174 151.521 3.23925 152.556 3.10192 153.165C2.06794 164.969 0 188.701 0 189.188C0 189.675 1.00062 189.932 1.50093 190C11.874 185.298 32.8203 175.692 33.6208 174.88C34.4213 174.068 34.2211 173.257 34.021 172.952Z" fill="black" stroke="black"/>
<path d="M134.211 12.6914C138.441 15.6697 139.471 21.5343 136.507 25.7895L43.8109 158.89C40.8485 163.144 35.0194 164.176 30.7905 161.199L15.8889 150.709C11.6583 147.73 10.6289 141.866 13.5924 137.61L106.289 4.50962C109.251 0.255986 115.08 -0.77642 119.309 2.20069L134.211 12.6914Z" fill="black" stroke="black"/>
</g>
<defs>
<clipPath id="clip0_10_932">
<rect width="139" height="190" fill="white"/>
</clipPath>
</defs>
</svg>
